<svg width="81" height="80" viewBox="0 0 81 80" fill="none" xmlns="http://www.w3.org/2000/svg">
<path d="M13.8333 51.6668C12.0652 51.6668 10.3695 50.9644 9.11925 49.7142C7.869 48.464 7.16663 46.7683 7.16663 45.0002C7.16663 43.2321 7.869 41.5364 9.11925 40.2861C10.3695 39.0359 12.0652 38.3335 13.8333 38.3335M67.1666 51.6668C68.9347 51.6668 70.6304 50.9644 71.8807 49.7142C73.1309 48.464 73.8333 46.7683 73.8333 45.0002C73.8333 43.2321 73.1309 41.5364 71.8807 40.2861C70.6304 39.0359 68.9347 38.3335 67.1666 38.3335M23.8333 23.3335V13.3335M57.1666 23.3335V13.3335" stroke="#FD6708" stroke-width="3" stroke-linecap="round" stroke-linejoin="round"/>
<path d="M23.8333 13.3334C25.6743 13.3334 27.1667 11.841 27.1667 10.0001C27.1667 8.15913 25.6743 6.66675 23.8333 6.66675C21.9924 6.66675 20.5 8.15913 20.5 10.0001C20.5 11.841 21.9924 13.3334 23.8333 13.3334Z" stroke="#FD6708" stroke-width="3" stroke-linecap="round" stroke-linejoin="round"/>
<path d="M57.1666 13.3334C59.0075 13.3334 60.4999 11.841 60.4999 10.0001C60.4999 8.15913 59.0075 6.66675 57.1666 6.66675C55.3256 6.66675 53.8333 8.15913 53.8333 10.0001C53.8333 11.841 55.3256 13.3334 57.1666 13.3334Z" stroke="#FD6708" stroke-width="3" stroke-linecap="round" stroke-linejoin="round"/>
<path d="M45.5 23.3335H35.5C26.0733 23.3335 21.3567 23.3335 18.43 26.3635C15.5033 29.3935 15.5 34.2702 15.5 44.0235C15.5 53.7768 15.5 58.6535 18.43 61.6835C21.3567 64.7135 26.0733 64.7135 35.5 64.7135H38.9167C41.5567 64.7135 42.4867 65.2568 44.3067 67.2368C46.3167 69.4268 49.43 72.3502 52.2467 73.0302C56.25 73.9968 56.7 72.6602 55.8067 68.8435C55.5533 67.7568 54.9167 66.0202 55.5867 65.0068C55.9633 64.4402 56.5867 64.3002 57.8367 64.0202C59.8067 63.5802 61.4333 62.8602 62.57 61.6835C65.5 58.6502 65.5 53.7768 65.5 44.0235C65.5 34.2702 65.5 29.3935 62.57 26.3635C59.6433 23.3335 54.9267 23.3335 45.5 23.3335Z" stroke="#FD6708" stroke-width="3" stroke-linecap="round" stroke-linejoin="round"/>
<path d="M32.1667 50.0001C34.0667 52.0234 37.0933 53.3334 40.5 53.3334C43.9067 53.3334 46.9333 52.0234 48.8333 50.0001M30.53 36.6667H30.5M50.53 36.6667H50.5" stroke="#FD6708" stroke-width="3" stroke-linecap="round" stroke-linejoin="round"/>
</svg>
